<svg xmlns="http://www.w3.org/2000/svg" xmlns:xlink="http://www.w3.org/1999/xlink" width="180" zoomAndPan="magnify" viewBox="0 0 135 135.000003" height="180" preserveAspectRatio="xMidYMid meet" version="1.0"><defs><g/><clipPath id="38d845e7fd"><path d="M 0.496094 0 L 134.503906 0 L 134.503906 134.007812 L 0.496094 134.007812 Z M 0.496094 0 " clip-rule="nonzero"/></clipPath><clipPath id="24cbc0d040"><path d="M 16.128906 0 L 118.871094 0 C 127.503906 0 134.503906 7 134.503906 15.632812 L 134.503906 118.375 C 134.503906 127.007812 127.503906 134.007812 118.871094 134.007812 L 16.128906 134.007812 C 7.496094 134.007812 0.496094 127.007812 0.496094 118.375 L 0.496094 15.632812 C 0.496094 7 7.496094 0 16.128906 0 Z M 16.128906 0 " clip-rule="nonzero"/></clipPath><linearGradient x1="0" gradientTransform="matrix(0.523466, 0, 0, 0.523466, 0.496322, 0.00000694853)" y1="128" x2="255.999986" gradientUnits="userSpaceOnUse" y2="128" id="e1b7631112"><stop stop-opacity="1" stop-color="rgb(5.099487%, 57.998657%, 53.29895%)" offset="0"/><stop stop-opacity="1" stop-color="rgb(5.082703%, 57.989502%, 53.427124%)" offset="0.015625"/><stop stop-opacity="1" stop-color="rgb(5.052185%, 57.972717%, 53.684998%)" offset="0.03125"/><stop stop-opacity="1" stop-color="rgb(5.020142%, 57.955933%, 53.942871%)" offset="0.046875"/><stop stop-opacity="1" stop-color="rgb(4.989624%, 57.939148%, 54.200745%)" offset="0.0625"/><stop stop-opacity="1" stop-color="rgb(4.957581%, 57.920837%, 54.458618%)" offset="0.078125"/><stop stop-opacity="1" stop-color="rgb(4.927063%, 57.904053%, 54.716492%)" offset="0.09375"/><stop stop-opacity="1" stop-color="rgb(4.89502%, 57.887268%, 54.974365%)" offset="0.109375"/><stop stop-opacity="1" stop-color="rgb(4.864502%, 57.870483%, 55.232239%)" offset="0.125"/><stop stop-opacity="1" stop-color="rgb(4.833984%, 57.852173%, 55.490112%)" offset="0.140625"/><stop stop-opacity="1" stop-color="rgb(4.801941%, 57.835388%, 55.747986%)" offset="0.15625"/><stop stop-opacity="1" stop-color="rgb(4.771423%, 57.818604%, 56.005859%)" offset="0.171875"/><stop stop-opacity="1" stop-color="rgb(4.73938%, 57.800293%, 56.263733%)" offset="0.1875"/><stop stop-opacity="1" stop-color="rgb(4.708862%, 57.783508%, 56.521606%)" offset="0.203125"/><stop stop-opacity="1" stop-color="rgb(4.676819%, 57.766724%, 56.77948%)" offset="0.21875"/><stop stop-opacity="1" stop-color="rgb(4.646301%, 57.749939%, 57.037354%)" offset="0.234375"/><stop stop-opacity="1" stop-color="rgb(4.614258%, 57.731628%, 57.295227%)" offset="0.25"/><stop stop-opacity="1" stop-color="rgb(4.58374%, 57.714844%, 57.553101%)" offset="0.265625"/><stop stop-opacity="1" stop-color="rgb(4.551697%, 57.698059%, 57.810974%)" offset="0.28125"/><stop stop-opacity="1" stop-color="rgb(4.521179%, 57.681274%, 58.067322%)" offset="0.296875"/><stop stop-opacity="1" stop-color="rgb(4.489136%, 57.662964%, 58.325195%)" offset="0.3125"/><stop stop-opacity="1" stop-color="rgb(4.458618%, 57.646179%, 58.583069%)" offset="0.328125"/><stop stop-opacity="1" stop-color="rgb(4.426575%, 57.629395%, 58.840942%)" offset="0.34375"/><stop stop-opacity="1" stop-color="rgb(4.396057%, 57.61261%, 59.098816%)" offset="0.359375"/><stop stop-opacity="1" stop-color="rgb(4.364014%, 57.594299%, 59.356689%)" offset="0.375"/><stop stop-opacity="1" stop-color="rgb(4.333496%, 57.577515%, 59.614563%)" offset="0.390625"/><stop stop-opacity="1" stop-color="rgb(4.301453%, 57.56073%, 59.872437%)" offset="0.40625"/><stop stop-opacity="1" stop-color="rgb(4.270935%, 57.543945%, 60.13031%)" offset="0.421875"/><stop stop-opacity="1" stop-color="rgb(4.238892%, 57.525635%, 60.388184%)" offset="0.4375"/><stop stop-opacity="1" stop-color="rgb(4.208374%, 57.50885%, 60.646057%)" offset="0.453125"/><stop stop-opacity="1" stop-color="rgb(4.176331%, 57.492065%, 60.903931%)" offset="0.46875"/><stop stop-opacity="1" stop-color="rgb(4.145813%, 57.473755%, 61.161804%)" offset="0.484375"/><stop stop-opacity="1" stop-color="rgb(4.11377%, 57.45697%, 61.419678%)" offset="0.5"/><stop stop-opacity="1" stop-color="rgb(4.083252%, 57.440186%, 61.677551%)" offset="0.515625"/><stop stop-opacity="1" stop-color="rgb(4.052734%, 57.423401%, 61.935425%)" offset="0.53125"/><stop stop-opacity="1" stop-color="rgb(4.020691%, 57.40509%, 62.193298%)" offset="0.546875"/><stop stop-opacity="1" stop-color="rgb(3.990173%, 57.388306%, 62.451172%)" offset="0.5625"/><stop stop-opacity="1" stop-color="rgb(3.95813%, 57.371521%, 62.709045%)" offset="0.578125"/><stop stop-opacity="1" stop-color="rgb(3.927612%, 57.354736%, 62.966919%)" offset="0.59375"/><stop stop-opacity="1" stop-color="rgb(3.895569%, 57.336426%, 63.224792%)" offset="0.609375"/><stop stop-opacity="1" stop-color="rgb(3.865051%, 57.319641%, 63.482666%)" offset="0.625"/><stop stop-opacity="1" stop-color="rgb(3.833008%, 57.302856%, 63.74054%)" offset="0.640625"/><stop stop-opacity="1" stop-color="rgb(3.80249%, 57.286072%, 63.998413%)" offset="0.65625"/><stop stop-opacity="1" stop-color="rgb(3.770447%, 57.267761%, 64.256287%)" offset="0.671875"/><stop stop-opacity="1" stop-color="rgb(3.739929%, 57.250977%, 64.512634%)" offset="0.6875"/><stop stop-opacity="1" stop-color="rgb(3.707886%, 57.234192%, 64.770508%)" offset="0.703125"/><stop stop-opacity="1" stop-color="rgb(3.677368%, 57.217407%, 65.028381%)" offset="0.71875"/><stop stop-opacity="1" stop-color="rgb(3.645325%, 57.199097%, 65.286255%)" offset="0.734375"/><stop stop-opacity="1" stop-color="rgb(3.614807%, 57.182312%, 65.544128%)" offset="0.75"/><stop stop-opacity="1" stop-color="rgb(3.582764%, 57.165527%, 65.802002%)" offset="0.765625"/><stop stop-opacity="1" stop-color="rgb(3.552246%, 57.147217%, 66.059875%)" offset="0.78125"/><stop stop-opacity="1" stop-color="rgb(3.520203%, 57.130432%, 66.317749%)" offset="0.796875"/><stop stop-opacity="1" stop-color="rgb(3.489685%, 57.113647%, 66.575623%)" offset="0.8125"/><stop stop-opacity="1" stop-color="rgb(3.457642%, 57.096863%, 66.833496%)" offset="0.828125"/><stop stop-opacity="1" stop-color="rgb(3.427124%, 57.078552%, 67.09137%)" offset="0.84375"/><stop stop-opacity="1" stop-color="rgb(3.395081%, 57.061768%, 67.349243%)" offset="0.859375"/><stop stop-opacity="1" stop-color="rgb(3.364563%, 57.044983%, 67.607117%)" offset="0.875"/><stop stop-opacity="1" stop-color="rgb(3.33252%, 57.028198%, 67.86499%)" offset="0.890625"/><stop stop-opacity="1" stop-color="rgb(3.302002%, 57.009888%, 68.122864%)" offset="0.90625"/><stop stop-opacity="1" stop-color="rgb(3.271484%, 56.993103%, 68.380737%)" offset="0.921875"/><stop stop-opacity="1" stop-color="rgb(3.239441%, 56.976318%, 68.638611%)" offset="0.9375"/><stop stop-opacity="1" stop-color="rgb(3.208923%, 56.959534%, 68.896484%)" offset="0.953125"/><stop stop-opacity="1" stop-color="rgb(3.17688%, 56.941223%, 69.154358%)" offset="0.96875"/><stop stop-opacity="1" stop-color="rgb(3.146362%, 56.924438%, 69.412231%)" offset="0.984375"/><stop stop-opacity="1" stop-color="rgb(3.114319%, 56.907654%, 69.670105%)" offset="1"/></linearGradient></defs><g clip-path="url(#38d845e7fd)"><g clip-path="url(#24cbc0d040)"><path fill="url(#e1b7631112)" d="M 0.496094 0 L 0.496094 134.007812 L 134.503906 134.007812 L 134.503906 0 Z M 0.496094 0 " fill-rule="nonzero"/></g></g><g fill="#f8fafc" fill-opacity="1"><g transform="translate(28.498856, 110.183828)"><g><path d="M 54.53125 -61.71875 C 54.1875 -65.132812 52.722656 -67.785156 50.140625 -69.671875 C 47.566406 -71.554688 44.09375 -72.5 39.71875 -72.5 C 35.238281 -72.5 31.800781 -71.582031 29.40625 -69.75 C 27.007812 -67.914062 25.8125 -65.601562 25.8125 -62.8125 C 25.75 -59.71875 27.078125 -57.375 29.796875 -55.78125 C 32.523438 -54.1875 35.765625 -52.953125 39.515625 -52.078125 L 47.296875 -50.21875 C 52.316406 -49.082031 56.78125 -47.441406 60.6875 -45.296875 C 64.59375 -43.160156 67.664062 -40.40625 69.90625 -37.03125 C 72.144531 -33.664062 73.265625 -29.570312 73.265625 -24.75 C 73.234375 -16.820312 70.265625 -10.507812 64.359375 -5.8125 C 58.453125 -1.113281 50.210938 1.234375 39.640625 1.234375 C 29.117188 1.234375 20.726562 -1.160156 14.46875 -5.953125 C 8.207031 -10.753906 4.960938 -17.835938 4.734375 -27.203125 L 22.46875 -27.203125 C 22.769531 -22.859375 24.476562 -19.59375 27.59375 -17.40625 C 30.71875 -15.21875 34.660156 -14.125 39.421875 -14.125 C 44.078125 -14.125 47.789062 -15.109375 50.5625 -17.078125 C 53.34375 -19.054688 54.75 -21.628906 54.78125 -24.796875 C 54.75 -27.722656 53.460938 -29.972656 50.921875 -31.546875 C 48.390625 -33.128906 44.769531 -34.488281 40.0625 -35.625 L 30.625 -37.984375 C 23.320312 -39.734375 17.554688 -42.507812 13.328125 -46.3125 C 9.097656 -50.125 6.992188 -55.21875 7.015625 -61.59375 C 6.992188 -66.84375 8.398438 -71.429688 11.234375 -75.359375 C 14.066406 -79.296875 17.960938 -82.359375 22.921875 -84.546875 C 27.890625 -86.734375 33.53125 -87.828125 39.84375 -87.828125 C 46.28125 -87.828125 51.898438 -86.722656 56.703125 -84.515625 C 61.515625 -82.316406 65.257812 -79.257812 67.9375 -75.34375 C 70.613281 -71.425781 71.992188 -66.882812 72.078125 -61.71875 Z M 54.53125 -61.71875 "/></g></g></g></svg>