<svg xmlns="http://www.w3.org/2000/svg" xmlns:xlink="http://www.w3.org/1999/xlink" width="180" zoomAndPan="magnify" viewBox="0 0 135 135.000003" height="180" preserveAspectRatio="xMidYMid meet" version="1.0"><defs><g/><clipPath id="36b3bdbf99"><path d="M 0.496094 0 L 134.503906 0 L 134.503906 134.007812 L 0.496094 134.007812 Z M 0.496094 0 " clip-rule="nonzero"/></clipPath><clipPath id="486580cb90"><path d="M 16.128906 0 L 118.871094 0 C 127.503906 0 134.503906 7 134.503906 15.632812 L 134.503906 118.375 C 134.503906 127.007812 127.503906 134.007812 118.871094 134.007812 L 16.128906 134.007812 C 7.496094 134.007812 0.496094 127.007812 0.496094 118.375 L 0.496094 15.632812 C 0.496094 7 7.496094 0 16.128906 0 Z M 16.128906 0 " clip-rule="nonzero"/></clipPath><linearGradient x1="0" gradientTransform="matrix(0.523466, 0, 0, 0.523466, 0.496322, 0.00000694853)" y1="128" x2="255.999986" gradientUnits="userSpaceOnUse" y2="128" id="b2a8d48eaa"><stop stop-opacity="1" stop-color="rgb(85.099792%, 46.699524%, 2.398682%)" offset="0"/><stop stop-opacity="1" stop-color="rgb(85.006714%, 46.813965%, 2.386475%)" offset="0.03125"/><stop stop-opacity="1" stop-color="rgb(84.822083%, 47.045898%, 2.362061%)" offset="0.0625"/><stop stop-opacity="1" stop-color="rgb(84.637451%, 47.276306%, 2.336121%)" offset="0.09375"/><stop stop-opacity="1" stop-color="rgb(84.45282%, 47.50824%, 2.311707%)" offset="0.125"/><stop stop-opacity="1" stop-color="rgb(84.268188%, 47.740173%, 2.285767%)" offset="0.15625"/><stop stop-opacity="1" stop-color="rgb(84.085083%, 47.970581%, 2.261353%)" offset="0.1875"/><stop stop-opacity="1" stop-color="rgb(83.900452%, 48.202515%, 2.236938%)" offset="0.21875"/><stop stop-opacity="1" stop-color="rgb(83.71582%, 48.432922%, 2.210999%)" offset="0.25"/><stop stop-opacity="1" stop-color="rgb(83.531189%, 48.664856%, 2.186584%)" offset="0.28125"/><stop stop-opacity="1" stop-color="rgb(83.346558%, 48.895264%, 2.16217%)" offset="0.3125"/><stop stop-opacity="1" stop-color="rgb(83.161926%, 49.127197%, 2.13623%)" offset="0.34375"/><stop stop-opacity="1" stop-color="rgb(82.978821%, 49.357605%, 2.111816%)" offset="0.375"/><stop stop-opacity="1" stop-color="rgb(82.794189%, 49.589539%, 2.085876%)" offset="0.40625"/><stop stop-opacity="1" stop-color="rgb(82.609558%, 49.821472%, 2.061462%)" offset="0.4375"/><stop stop-opacity="1" stop-color="rgb(82.424927%, 50.05188%, 2.037048%)" offset="0.46875"/><stop stop-opacity="1" stop-color="rgb(82.240295%, 50.283813%, 2.011108%)" offset="0.5"/><stop stop-opacity="1" stop-color="rgb(82.055664%, 50.514221%, 1.986694%)" offset="0.53125"/><stop stop-opacity="1" stop-color="rgb(81.872559%, 50.746155%, 1.960754%)" offset="0.5625"/><stop stop-opacity="1" stop-color="rgb(81.687927%, 50.976562%, 1.93634%)" offset="0.59375"/><stop stop-opacity="1" stop-color="rgb(81.503296%, 51.208496%, 1.911926%)" offset="0.625"/><stop stop-opacity="1" stop-color="rgb(81.318665%, 51.438904%, 1.885986%)" offset="0.65625"/><stop stop-opacity="1" stop-color="rgb(81.134033%, 51.670837%, 1.861572%)" offset="0.6875"/><stop stop-opacity="1" stop-color="rgb(80.950928%, 51.902771%, 1.837158%)" offset="0.71875"/><stop stop-opacity="1" stop-color="rgb(80.766296%, 52.133179%, 1.811218%)" offset="0.75"/><stop stop-opacity="1" stop-color="rgb(80.581665%, 52.365112%, 1.786804%)" offset="0.78125"/><stop stop-opacity="1" stop-color="rgb(80.397034%, 52.59552%, 1.760864%)" offset="0.8125"/><stop stop-opacity="1" stop-color="rgb(80.212402%, 52.827454%, 1.73645%)" offset="0.84375"/><stop stop-opacity="1" stop-color="rgb(80.027771%, 53.057861%, 1.712036%)" offset="0.875"/><stop stop-opacity="1" stop-color="rgb(79.844666%, 53.289795%, 1.686096%)" offset="0.90625"/><stop stop-opacity="1" stop-color="rgb(79.660034%, 53.520203%, 1.661682%)" offset="0.9375"/><stop stop-opacity="1" stop-color="rgb(79.475403%, 53.752136%, 1.635742%)" offset="0.96875"/><stop stop-opacity="1" stop-color="rgb(79.290771%, 53.982544%, 1.611328%)" offset="1"/></linearGradient></defs><g clip-path="url(#36b3bdbf99)"><g clip-path="url(#486580cb90)"><path fill="url(#b2a8d48eaa)" d="M 0.496094 0 L 0.496094 134.007812 L 134.503906 134.007812 L 134.503906 0 Z M 0.496094 0 " fill-rule="nonzero"/></g></g><g fill="#f8fafc" fill-opacity="1"><g transform="translate(28.498856, 110.183828)"><g><path d="M 54.53125 -61.71875 C 54.1875 -65.132812 52.722656 -67.785156 50.140625 -69.671875 C 47.566406 -71.554688 44.09375 -72.5 39.71875 -72.5 C 35.238281 -72.5 31.800781 -71.582031 29.40625 -69.75 C 27.007812 -67.914062 25.8125 -65.601562 25.8125 -62.8125 C 25.75 -59.71875 27.078125 -57.375 29.796875 -55.78125 C 32.523438 -54.1875 35.765625 -52.953125 39.515625 -52.078125 L 47.296875 -50.21875 C 52.316406 -49.082031 56.78125 -47.441406 60.6875 -45.296875 C 64.59375 -43.160156 67.664062 -40.40625 69.90625 -37.03125 C 72.144531 -33.664062 73.265625 -29.570312 73.265625 -24.75 C 73.234375 -16.820312 70.265625 -10.507812 64.359375 -5.8125 C 58.453125 -1.113281 50.210938 1.234375 39.640625 1.234375 C 29.117188 1.234375 20.726562 -1.160156 14.46875 -5.953125 C 8.207031 -10.753906 4.960938 -17.835938 4.734375 -27.203125 L 22.46875 -27.203125 C 22.769531 -22.859375 24.476562 -19.59375 27.59375 -17.40625 C 30.71875 -15.21875 34.660156 -14.125 39.421875 -14.125 C 44.078125 -14.125 47.789062 -15.109375 50.5625 -17.078125 C 53.34375 -19.054688 54.75 -21.628906 54.78125 -24.796875 C 54.75 -27.722656 53.460938 -29.972656 50.921875 -31.546875 C 48.390625 -33.128906 44.769531 -34.488281 40.0625 -35.625 L 30.625 -37.984375 C 23.320312 -39.734375 17.554688 -42.507812 13.328125 -46.3125 C 9.097656 -50.125 6.992188 -55.21875 7.015625 -61.59375 C 6.992188 -66.84375 8.398438 -71.429688 11.234375 -75.359375 C 14.066406 -79.296875 17.960938 -82.359375 22.921875 -84.546875 C 27.890625 -86.734375 33.53125 -87.828125 39.84375 -87.828125 C 46.28125 -87.828125 51.898438 -86.722656 56.703125 -84.515625 C 61.515625 -82.316406 65.257812 -79.257812 67.9375 -75.34375 C 70.613281 -71.425781 71.992188 -66.882812 72.078125 -61.71875 Z M 54.53125 -61.71875 "/></g></g></g></svg>